<?xml version="1.0" encoding="UTF-8" ?>
<!DOCTYPE svg PUBLIC "-//W3C//DTD SVG 1.1//EN" "http://www.w3.org/Graphics/SVG/1.1/DTD/svg11.dtd">
<svg width="684pt" height="584pt" viewBox="0 0 684 584" version="1.1" xmlns="http://www.w3.org/2000/svg">
<path fill="#fefefe" d=" M 0.00 0.00 L 684.00 0.00 L 684.00 584.00 L 0.00 584.00 L 0.00 303.28 C 0.96 305.10 1.13 307.15 1.36 309.16 C 5.72 342.60 22.04 374.31 46.62 397.39 C 68.57 418.16 97.03 431.98 127.01 436.00 C 151.69 439.28 177.24 436.56 200.43 427.38 C 226.64 417.10 249.84 399.16 266.21 376.25 C 283.49 352.43 293.39 323.35 294.25 293.93 C 294.78 281.44 294.19 268.94 294.59 256.45 C 295.44 257.30 296.23 258.24 296.78 259.33 C 311.92 289.21 329.35 317.94 349.01 345.07 C 333.18 418.56 317.42 492.07 301.85 565.61 C 327.65 565.65 353.45 565.59 379.25 565.63 C 390.68 512.25 401.91 458.83 413.26 405.44 C 432.00 416.96 452.42 425.99 473.95 430.72 C 504.30 437.54 536.76 437.68 566.28 427.12 C 599.16 415.73 627.56 392.31 645.49 362.54 C 667.76 325.75 674.12 279.51 661.79 238.23 C 653.04 208.51 634.77 181.72 610.43 162.58 C 583.40 140.93 548.64 129.25 514.03 130.03 C 489.34 130.37 464.64 136.86 443.34 149.45 C 416.59 165.08 395.96 189.84 382.71 217.62 C 377.31 228.75 373.21 240.45 369.71 252.30 C 337.39 201.40 311.84 146.14 294.40 88.41 C 269.23 88.34 244.07 88.40 218.91 88.38 C 218.77 154.95 218.92 221.52 218.84 288.09 C 218.80 306.42 211.70 324.73 198.84 337.87 C 188.37 348.97 174.15 356.45 159.10 358.93 C 142.18 361.96 124.23 358.35 109.63 349.33 C 88.94 336.85 75.45 313.18 75.64 288.97 C 75.57 222.12 75.69 155.27 75.58 88.42 C 50.39 88.31 25.19 88.45 0.00 88.35 L 0.00 0.00 Z" />
<path fill="#343434" d=" M 0.00 88.35 C 25.19 88.45 50.39 88.31 75.58 88.42 C 75.69 155.27 75.57 222.12 75.64 288.97 C 75.45 313.18 88.94 336.85 109.63 349.33 C 124.23 358.35 142.18 361.96 159.10 358.93 C 174.15 356.45 188.37 348.97 198.84 337.87 C 211.70 324.73 218.80 306.42 218.84 288.09 C 218.92 221.52 218.77 154.95 218.91 88.38 C 244.07 88.40 269.23 88.34 294.40 88.41 C 311.84 146.14 337.39 201.40 369.71 252.30 C 373.21 240.45 377.31 228.75 382.71 217.62 C 395.96 189.84 416.59 165.08 443.34 149.45 C 464.64 136.86 489.34 130.37 514.03 130.03 C 548.64 129.25 583.40 140.93 610.43 162.58 C 634.77 181.72 653.04 208.51 661.79 238.23 C 674.12 279.51 667.76 325.75 645.49 362.54 C 627.56 392.31 599.16 415.73 566.28 427.12 C 536.76 437.68 504.30 437.54 473.95 430.72 C 452.42 425.99 432.00 416.96 413.26 405.44 C 401.91 458.83 390.68 512.25 379.25 565.63 C 353.45 565.59 327.65 565.65 301.85 565.61 C 317.42 492.07 333.18 418.56 349.01 345.07 C 329.35 317.94 311.92 289.21 296.78 259.33 C 296.23 258.24 295.44 257.30 294.59 256.45 C 294.19 268.94 294.78 281.44 294.25 293.93 C 293.39 323.35 283.49 352.43 266.21 376.25 C 249.84 399.16 226.64 417.10 200.43 427.38 C 177.24 436.56 151.69 439.28 127.01 436.00 C 97.03 431.98 68.57 418.16 46.62 397.39 C 22.04 374.31 5.72 342.60 1.36 309.16 C 1.13 307.15 0.96 305.10 0.00 303.28 L 0.00 88.35 Z" />
<path fill="#fefefe" d=" M 495.41 209.18 C 514.46 203.06 535.97 204.73 553.69 214.11 C 579.35 227.27 596.28 256.16 593.98 285.07 C 591.86 306.90 580.64 327.74 563.37 341.30 C 549.56 352.39 531.81 358.78 514.03 358.05 C 483.79 357.01 454.98 343.53 432.17 324.10 C 434.55 314.82 436.81 305.51 439.17 296.22 C 442.03 276.60 447.75 257.06 458.14 240.03 C 466.69 226.03 479.62 214.28 495.41 209.18 Z" />
</svg>
